<?xml version="1.0" encoding="utf-8"?>
<!-- Generator: Adobe Illustrator 22.0.1, SVG Export Plug-In . SVG Version: 6.00 Build 0)  -->
<svg version="1.1" id="Layer_1" xmlns="http://www.w3.org/2000/svg" xmlns:xlink="http://www.w3.org/1999/xlink" x="0px" y="0px"
	 viewBox="0 0 376.1 334.7" style="enable-background:new 0 0 376.1 334.7;" xml:space="preserve">
<style type="text/css">
	.st0{fill-rule:evenodd;clip-rule:evenodd;fill:#727270;}
	.st1{fill-rule:evenodd;clip-rule:evenodd;fill:#67CDFD;}
	.st2{fill-rule:evenodd;clip-rule:evenodd;fill:#FEFEFE;}
</style>
<g>
	<path class="st0" d="M102.1,212.8L102.1,212.8c3.9,4.2,9.6,7.1,15.6,7.4c-28.3,19.1-45.3,18-49.5,66.2h116.8h1.4h115
		c-2.5-29.7-10.3-41.4-23.4-49.9c-7.8,6-17.7,9.9-28.7,9.9c-21.6,0-39.6-14.9-44.9-35c-13.8,10.3-36.8,8.9-47.8-10.3
		c2.1-5.3,5.3-13.8,5-19.5c0,0-15.9-13.8-20.2-34.3c-2.8,0-5.7-2.1-7.8-5.3c0,11.3-0.7,28-3.2,43.5
		C128.3,201.1,120.5,212.8,102.1,212.8L102.1,212.8z"/>
	<path class="st1" d="M249.3,159.7L249.3,159.7c-21.9,0-40.3,18-40.3,40.3c0,21.9,18,40,40.3,40c22.3,0,40.3-18,40.3-40
		C289.7,177.7,271.6,159.7,249.3,159.7L249.3,159.7z"/>
	<path class="st0" d="M157,95.6c-5.7,23.3-23.4,32.9-24.1,21.9c-14.5-84.9,115-86,104,0.7c0,1.1-0.7,4.3-1.8,5.7
		c-0.7-0.4-1.8-0.4-2.5-0.4c-2.1-2.1-3.5-3.9-4.6-5.3c-3.9-3.2-7.4-1.1-14.9,1.4C190.2,126.1,163,118.3,157,95.6L157,95.6z"/>
	<polygon class="st2" points="269.8,205.7 269.8,205.7 255.7,205.7 255.7,220.2 243.3,220.2 243.3,205.7 228.8,205.7 228.8,193.6 
		243.3,193.6 243.3,179.5 255.7,179.5 255.7,193.6 269.8,193.6 	"/>
</g>
</svg>
